<svg width="167" height="51" viewBox="0 0 167 51" fill="none" xmlns="http://www.w3.org/2000/svg">
<g clip-path="url(#clip0_3166_3316)">
<path d="M78.8358 28.4233C80.2511 27.9148 80.4001 27.8894 80.8222 27.1267C81.0457 26.7199 81.294 25.2199 81.4182 25.1945C81.4927 25.1436 81.6665 25.0419 82.0638 25.0165C82.8335 24.9657 83.3549 25.9826 85.1924 25.347C85.9125 25.0928 86.3594 25.4233 87.0795 25.1436C88.7183 24.508 90.5061 23.364 88.0976 22.347C88.0727 22.347 88.0727 22.3216 88.0479 22.3216C88.0727 22.2708 88.2465 21.025 87.8492 20.5419C87.5513 20.5165 87.5016 21.6352 87.3278 21.8894L87.2037 21.9148C87.1788 21.7877 87.2285 20.4402 86.856 20.4402C86.7567 20.8724 86.6822 21.3555 86.4587 21.7369C85.0434 19.9572 83.9757 17.6945 83.7026 16.3724C83.4543 15.1775 83.9509 14.7962 84.3978 14.5928C89.0659 14.3894 88.6935 11.9233 87.1292 10.1945C86.0366 8.97412 84.2488 8.77073 83.3301 9.68599C83.1563 9.86395 83.0073 10.0419 83.1066 10.347C83.2556 10.8046 79.5559 13.6012 78.7365 13.525C76.4521 13.6775 76.8742 15.5589 76.8742 15.5843C76.5017 15.7877 76.0548 15.9402 75.881 15.5335C75.7817 15.2538 75.3844 15.3301 75.3347 15.3301V15.3046C75.2354 15.3301 75.1857 15.3809 75.1857 15.5335C75.1857 15.6351 75.2851 15.7877 75.2106 15.864C74.9871 15.9911 74.7388 15.4318 74.4408 15.686C74.3167 15.7877 74.3167 15.9402 74.3663 16.0928C74.416 16.2199 74.5401 16.3216 74.565 16.4487C74.5153 16.4741 74.4657 16.4741 74.416 16.525C72.951 16.8555 72.8765 17.4148 71.337 18.0504C71.188 18.1267 71.0142 18.1775 70.8652 18.2538C71.0639 23.1097 74.1925 27.1775 78.4882 28.6775C78.5627 28.5504 78.6868 28.4742 78.8358 28.4233Z" fill="white"/>
<path d="M79.6561 14.5688C79.632 14.6164 79.608 14.6164 79.632 14.6164C79.6561 14.6164 79.6561 14.5926 79.6561 14.5688Z" fill="#AF2117"/>
<path d="M79.8267 14.1375C79.8019 14.2646 79.6777 14.4171 79.6032 14.5188C79.5287 14.6205 79.4543 14.7476 79.4046 14.8747C79.3798 14.9002 79.4046 14.9256 79.4046 14.951C79.5536 14.9256 79.5784 14.7476 79.6529 14.6205C79.6529 14.6205 79.6529 14.6205 79.6777 14.5697C79.6777 14.5951 79.6529 14.5951 79.6529 14.6205C79.6777 14.5951 79.8267 14.4171 79.9757 14.1375C80.0254 14.0358 80.1495 13.8324 80.0005 13.7307C79.7522 13.6544 79.8515 14.0612 79.8267 14.1375Z" fill="#AF2117"/>
<path d="M76.9959 17.57C76.8718 17.6209 76.6235 17.6971 76.4745 17.6717C76.3503 17.6463 76.2262 17.4175 76.1765 17.3158C76.1268 17.2395 76.102 17.1378 76.1765 17.087C76.2262 17.0615 76.3255 17.0361 76.4 17.0107C76.4 16.8836 76.2262 16.909 76.2013 16.8073C76.1765 16.7056 76.3007 16.6802 76.2013 16.5785C76.1517 16.5276 76.102 16.4768 76.0275 16.426C75.9282 16.3497 75.8289 16.2734 75.7296 16.1971C75.5806 16.07 75.4316 15.9683 75.3074 15.8412C75.2081 15.7649 75.084 15.4853 75.1585 15.3582C75.2578 15.2056 75.4813 15.2565 75.6054 15.2819C75.7544 15.3073 75.8289 15.4344 75.8785 15.587C75.9282 15.7649 75.9034 15.9683 75.9779 16.1463C76.0027 16.248 76.0275 16.2988 76.1269 16.3497C76.2262 16.4005 76.3007 16.4514 76.3752 16.5022C76.4496 16.5531 76.549 16.5276 76.6483 16.5531C76.7228 16.5785 76.7973 16.6293 76.8469 16.6802C76.9959 16.7565 77.0704 16.9344 77.1201 17.1124C77.2194 17.3412 77.1946 17.4683 76.9959 17.57Z" fill="#AF2117"/>
<path d="M79.183 14.087C79.2079 14.1632 79.2327 14.2141 79.2327 14.2904C79.2327 14.3921 79.183 14.3921 79.1334 14.4683C79.0837 14.5192 79.1085 14.57 79.0092 14.5954C78.9347 14.6209 78.8602 14.6209 78.7857 14.6209C78.6616 14.6463 78.5126 14.7226 78.3885 14.6971V14.6717C78.3636 14.4175 78.5126 14.1887 78.6864 14.0361C78.7857 13.9344 78.9099 13.8836 79.0589 13.8582C79.1334 13.8327 79.4065 13.7819 79.4313 13.8582C79.3568 13.8836 79.3072 13.9344 79.2575 13.9598C79.1582 13.9853 79.1582 13.9853 79.183 14.087Z" fill="#AF2117"/>
<path d="M83.726 15.4331C83.7011 15.5857 83.6515 15.7637 83.6763 15.8908C83.6763 15.9416 83.8004 16.5518 83.7508 16.4501C83.6515 16.2467 83.3287 14.8992 83.4528 14.823C83.6018 14.6959 83.4777 14.4925 83.6266 14.4162C83.7756 14.3399 83.9743 14.3145 84.1232 14.4162C84.2226 14.4925 84.3715 14.5433 84.5205 14.5687C84.1729 14.7721 83.8005 15.0518 83.726 15.4331Z" fill="#AF2117"/>
<path d="M86.9083 20.4175L86.958 20.4429C87.256 20.57 87.2063 21.7395 87.2311 21.8921C87.0573 22.0446 86.9828 21.7141 86.7842 21.7649C86.7842 21.7904 87.0077 21.0277 86.9083 20.4175Z" fill="#AF2117"/>
<path d="M74.3155 26.3145C74.6135 25.5518 72.7512 20.7213 72.7015 20.5687C72.6767 20.4925 72.6519 20.3653 72.7015 20.3145C72.7512 20.2636 72.8753 20.2891 72.9002 20.3653L72.8753 20.3908C73.0243 20.5687 74.4397 22.6789 75.2839 23.2382C75.6563 22.4501 75.1349 19.8823 75.2839 19.4247C75.3336 19.2975 75.3087 19.1704 75.5074 19.323L75.4825 19.3484C75.5819 19.4755 76.7985 21.306 77.0965 23.2891C77.1462 23.6959 76.6247 24.0518 76.8234 24.4586C77.32 25.4755 78.4622 26.0094 78.487 26.0603C79.1823 26.0603 79.3313 24.0009 80.8707 23.2382C81.4418 22.9077 81.268 20.9501 81.0445 19.0179C80.8459 17.4162 80.9204 16.145 80.6721 15.3823C80.7218 15.3569 81.3673 15.4586 81.864 15.1026C82.4847 14.645 83.18 14.3653 83.2296 14.3908V14.4162C82.9068 14.5687 82.8572 14.9501 82.584 15.128C82.3606 15.306 81.9881 15.4077 82.0874 15.8653C84.1235 19.8314 84.1235 21.2552 84.0987 21.4331C83.9 21.662 82.8572 23.2128 84.0739 24.5348C87.1032 24.7891 87.128 23.4162 87.6494 22.3484C87.9474 21.7128 87.7984 21.0009 87.8233 20.5433C87.8233 20.5433 88.2205 20.467 88.0467 22.1704V22.2467C90.5298 23.2637 88.7668 24.5603 87.1032 25.1704C86.3831 25.4247 85.9113 25.0942 85.1912 25.3738C83.3786 26.0603 82.8323 24.9925 82.0626 25.0433C81.6901 25.0687 81.7646 25.0687 81.566 25.1196L81.417 25.1959C81.3177 25.323 81.0445 26.6704 80.8459 27.1026C80.4735 27.9162 80.2996 27.967 78.8843 28.4755C78.6608 28.5518 78.5118 28.7298 78.3877 28.9077C78.3629 28.9077 78.338 28.8823 78.2884 28.8823C76.8234 28.2721 75.4577 27.4077 74.3155 26.3145Z" fill="#AF2117"/>
<path d="M80.3755 14.8466C80.1272 15.05 79.7796 15.3805 79.4568 15.4314C79.4071 15.3551 79.8789 14.8721 79.9286 14.7704C80.152 14.4653 80.3507 14.1348 80.4003 13.7534H80.4748C80.7976 13.9822 80.6238 14.6178 80.3755 14.8466Z" fill="#AF2117"/>
<path d="M87.0276 13.7296C87.1766 13.5771 89.1879 11.2889 84.0977 9.20417C84.0977 9.20417 85.2647 8.69569 86.7297 9.81434C87.9712 10.7296 89.1631 12.916 87.0276 13.7296Z" fill="#AF2117"/>
<path d="M0.0496609 29.5946L0 5.79795L5.93447 5.77253L5.9593 14.7217L13.5574 14.6963L13.5326 5.7471L19.4671 5.72168L19.5167 29.5183L13.5822 29.5437L13.5574 20.0353L5.9593 20.0607L5.98413 29.5692L0.0496609 29.5946Z" fill="white"/>
<path d="M22.1221 5.7471L28.0565 5.72168L28.1062 29.5183L22.1717 29.5438L22.1221 5.7471Z" fill="white"/>
<path d="M38.2871 5.69531C42.5828 5.69531 44.1968 6.35633 45.4631 7.42413C47.3006 8.97498 48.1945 11.314 48.2193 13.7292C48.2193 16.1445 47.2509 18.6869 45.7859 19.9835C44.1968 21.3818 42.6076 22.0428 39.0072 22.0682H36.6732L36.698 29.5174L30.7635 29.5428L30.7139 5.74616L38.2871 5.69531ZM36.6483 16.7038H38.8086C39.3797 16.7038 40.3232 16.7038 41.093 16.3479C41.8876 15.9919 42.5083 15.2546 42.5083 13.8309C42.5083 12.4072 41.8379 11.7462 41.0185 11.3902C40.1991 11.0343 39.2307 11.0343 38.5603 11.0343H36.6235L36.6483 16.7038Z" fill="white"/>
<path d="M57.4575 5.66992C61.7531 5.66992 63.3671 6.33094 64.6335 7.39874C66.4709 8.94959 67.3648 11.2886 67.3897 13.7038C67.3897 16.1191 66.4213 18.6615 64.9563 19.9581C63.3671 21.3564 61.778 22.0174 58.1776 22.0428H55.8435L55.8683 29.492L49.909 29.4666L49.8594 5.66992H57.4575ZM55.8187 16.653H57.9789C58.55 16.653 59.4936 16.653 60.2633 16.2971C61.0579 15.9411 61.6787 15.2038 61.6787 13.7801C61.6787 12.3564 61.0082 11.6954 60.1888 11.3394C59.3694 10.9835 58.401 10.9835 57.7306 10.9835H55.7938L55.8187 16.653Z" fill="white"/>
<path d="M103.442 24.1793H110.866V29.5183H92.5664L96.1917 25.5268L104.212 11.0607H96.1917L92.9637 5.72168H110.866V10.6285L103.442 24.1793Z" fill="white"/>
<path d="M112.955 5.72168H118.89V29.5183H112.955V5.72168Z" fill="white"/>
<path d="M135.1 20.2132L134.976 5.72168H140.662V29.5183H135.523L126.633 15.1793L126.757 29.5183H121.071V5.72168H126.186L135.1 20.2132Z" fill="white"/>
<path d="M141.731 17.8739C141.731 10.0942 147.567 5.26367 153.973 5.26367C161.124 5.26367 166.264 10.984 166.264 17.6196C166.264 24.2552 161.174 29.9756 153.948 29.9756C146.623 29.9756 141.731 24.0264 141.731 17.9247V17.8739V17.8739ZM147.666 17.5942C147.666 21.2298 150.074 24.6366 154.072 24.6366C158.269 24.6366 160.329 20.7213 160.329 17.6705C160.329 14.5942 158.293 10.6281 154.023 10.6281C149.901 10.6281 147.691 14.2383 147.691 17.5688V17.5942H147.666Z" fill="white"/>
<path d="M82.5607 34.7289C73.1997 34.7289 65.6016 26.9238 65.6016 17.3644C65.6016 7.77967 73.1997 0 82.5607 0C91.9218 0 99.5199 7.77967 99.5199 17.3644C99.5199 26.9238 91.9218 34.7289 82.5607 34.7289ZM82.5607 5.31357C76.08 5.31357 70.816 10.7034 70.816 17.339C70.816 23.9746 76.08 29.3644 82.5607 29.3644C89.0415 29.3644 94.3055 23.9746 94.3055 17.339C94.3055 10.7034 89.0415 5.31357 82.5607 5.31357Z" fill="white"/>
<path d="M33.6144 46.6655C33.3744 46.838 33.067 46.9617 32.6921 47.0367C32.3247 47.1117 31.946 47.1492 31.5561 47.1492C31.0838 47.1492 30.6339 47.0779 30.2065 46.9355C29.7866 46.7855 29.4154 46.5493 29.093 46.2269C28.7706 45.897 28.5119 45.4733 28.317 44.956C28.1295 44.4311 28.0358 43.7975 28.0358 43.0552C28.0358 42.2829 28.1408 41.6381 28.3507 41.1207C28.5682 40.5958 28.8456 40.176 29.183 39.861C29.5279 39.5386 29.9103 39.3099 30.3302 39.175C30.7501 39.0325 31.17 38.9613 31.5899 38.9613C32.0398 38.9613 32.4184 38.9913 32.7258 39.0512C33.0407 39.1112 33.2994 39.1825 33.5019 39.2649L33.1982 40.5696C33.0258 40.4871 32.8196 40.4271 32.5796 40.3896C32.3472 40.3522 32.0623 40.3334 31.7248 40.3334C31.1025 40.3334 30.6001 40.5546 30.2177 40.997C29.8428 41.4394 29.6554 42.1255 29.6554 43.0552C29.6554 43.4601 29.7004 43.8313 29.7903 44.1687C29.8803 44.4986 30.0153 44.7835 30.1952 45.0235C30.3827 45.2559 30.6114 45.4396 30.8813 45.5746C31.1587 45.702 31.4774 45.7658 31.8373 45.7658C32.1747 45.7658 32.4596 45.732 32.6921 45.6645C32.9245 45.5971 33.127 45.5108 33.2994 45.4059L33.6144 46.6655ZM39.0765 45.2484H36.6584L36.0623 46.9917H34.5214L37.3557 39.0625H38.4916L41.3259 46.9917H39.7063L39.0765 45.2484ZM37.052 44.0112H38.7391L38.1542 42.2567L37.918 41.0195H37.8618L37.6256 42.2679L37.052 44.0112ZM46.5273 44.8772C46.5273 44.6373 46.4374 44.4424 46.2574 44.2924C46.085 44.1424 45.8638 44.0075 45.5938 43.8875C45.3314 43.76 45.0427 43.6326 44.7278 43.5051C44.4204 43.3701 44.1317 43.2089 43.8618 43.0215C43.5993 42.8265 43.3782 42.5866 43.1982 42.3017C43.0257 42.0167 42.9395 41.6531 42.9395 41.2107C42.9395 40.8283 43.0033 40.4984 43.1307 40.2209C43.2582 39.936 43.4381 39.6998 43.6706 39.5124C43.9105 39.3249 44.1917 39.1862 44.5141 39.0962C44.8365 39.0063 45.1964 38.9613 45.5938 38.9613C46.0512 38.9613 46.4824 39.0025 46.8873 39.085C47.2921 39.16 47.6258 39.2724 47.8882 39.4224L47.4046 40.7158C47.2397 40.6108 46.9922 40.5171 46.6623 40.4346C46.3324 40.3447 45.9762 40.2997 45.5938 40.2997C45.2339 40.2997 44.9565 40.3709 44.7615 40.5134C44.5741 40.6558 44.4804 40.847 44.4804 41.087C44.4804 41.3119 44.5666 41.4994 44.7391 41.6493C44.919 41.7993 45.1402 41.938 45.4026 42.0655C45.6726 42.1929 45.9612 42.3242 46.2687 42.4591C46.5836 42.5941 46.8723 42.759 47.1347 42.954C47.4046 43.1414 47.6258 43.3776 47.7983 43.6626C47.9782 43.94 48.0682 44.2886 48.0682 44.7085C48.0682 45.1284 47.997 45.4921 47.8545 45.7995C47.7195 46.0994 47.5246 46.3506 47.2697 46.5531C47.0222 46.7555 46.7185 46.9055 46.3586 47.0029C46.0062 47.1004 45.6163 47.1492 45.1889 47.1492C44.6266 47.1492 44.1317 47.0967 43.7043 46.9917C43.2769 46.8867 42.962 46.7818 42.7596 46.6768L43.2544 45.3609C43.3369 45.4059 43.4419 45.4546 43.5694 45.5071C43.7043 45.5596 43.8543 45.6083 44.0192 45.6533C44.1842 45.6983 44.3567 45.7358 44.5366 45.7658C44.7241 45.7958 44.9153 45.8108 45.1102 45.8108C45.5676 45.8108 45.9163 45.7358 46.1562 45.5858C46.4036 45.4284 46.5273 45.1922 46.5273 44.8772ZM50.3769 39.1187H51.9178V46.9917H50.3769V39.1187ZM56.5084 42.8865L55.8898 41.6493H55.8335L56.0135 42.8865V46.9917H54.5514V39.0625H55.6761L58.6566 43.2577L59.2526 44.4611H59.3089L59.1289 43.2577V39.1187H60.5911V47.0479H59.4663L56.5084 42.8865ZM62.8205 43.0552C62.8205 41.7431 63.1092 40.7346 63.6866 40.0297C64.2639 39.3174 65.0887 38.9613 66.1609 38.9613C66.7233 38.9613 67.2144 39.0587 67.6343 39.2537C68.0542 39.4486 68.4028 39.7261 68.6803 40.086C68.9577 40.4459 69.1639 40.877 69.2989 41.3794C69.4338 41.8818 69.5013 42.4404 69.5013 43.0552C69.5013 44.3674 69.2089 45.3796 68.624 46.0919C68.0467 46.7967 67.2256 47.1492 66.1609 47.1492C65.5911 47.1492 65.0962 47.0517 64.6763 46.8567C64.2564 46.6618 63.9077 46.3844 63.6303 46.0244C63.3604 45.6645 63.1579 45.2334 63.023 44.731C62.888 44.2287 62.8205 43.6701 62.8205 43.0552ZM64.4401 43.0552C64.4401 43.4526 64.4739 43.82 64.5413 44.1574C64.6088 44.4873 64.71 44.7723 64.845 45.0122C64.9875 45.2521 65.1674 45.4396 65.3849 45.5746C65.6023 45.7095 65.861 45.777 66.1609 45.777C66.7083 45.777 67.1319 45.5633 67.4318 45.1359C67.7318 44.7085 67.8817 44.015 67.8817 43.0552C67.8817 42.6728 67.848 42.3167 67.7805 41.9867C67.7205 41.6568 67.623 41.3681 67.4881 41.1207C67.3531 40.8733 67.1769 40.6821 66.9595 40.5471C66.742 40.4046 66.4758 40.3334 66.1609 40.3334C65.6136 40.3334 65.1899 40.5546 64.89 40.997C64.5901 41.4319 64.4401 42.118 64.4401 43.0552ZM78.9839 45.2484H76.5658L75.9697 46.9917H74.4289L77.2631 39.0625H78.3991L81.2334 46.9917H79.6138L78.9839 45.2484ZM76.9595 44.0112H78.6465L78.0617 42.2567L77.8255 41.0195H77.7692L77.5331 42.2679L76.9595 44.0112ZM84.9952 42.8865L84.3766 41.6493H84.3203L84.5003 42.8865V46.9917H83.0382V39.0625H84.1629L87.1434 43.2577L87.7395 44.4611H87.7957L87.6157 43.2577V39.1187H89.0779V47.0479H87.9531L84.9952 42.8865ZM93.4443 44.0675L90.8574 39.1187H92.6907L94.1304 42.0767L94.2878 42.909H94.3441L94.5128 42.0542L95.9074 39.1187H97.5607L94.9851 44.0562V46.9917H93.4443V44.0675ZM101.042 43.5163L101.188 44.911H101.233L101.391 43.4939L102.763 39.1187H103.775L105.125 43.5163L105.282 44.911H105.327L105.496 43.4939L106.452 39.1187H108.015L105.844 47.0479H104.81L103.404 42.6728L103.213 41.4694H103.156L102.965 42.6841L101.571 47.0479H100.48L98.3202 39.1187H99.996L101.042 43.5163ZM114.238 43.6963H111.359V46.9917H109.818V39.1187H111.359V42.3242H114.238V39.1187H115.779V46.9917H114.238V43.6963ZM118.269 39.1187H122.936V40.4909H119.81V42.3242H122.655V43.6963H119.81V45.6196H122.993V46.9917H118.269V39.1187ZM125.27 39.1975C125.442 39.1675 125.626 39.1412 125.821 39.1187C126.023 39.0887 126.222 39.0662 126.417 39.0512C126.619 39.0362 126.814 39.025 127.002 39.0175C127.189 39.01 127.362 39.0063 127.519 39.0063C127.887 39.0063 128.246 39.04 128.599 39.1075C128.959 39.175 129.277 39.2912 129.555 39.4561C129.84 39.6211 130.065 39.8498 130.23 40.1422C130.402 40.4271 130.488 40.787 130.488 41.2219C130.488 41.8668 130.338 42.3916 130.038 42.7965C129.739 43.2014 129.337 43.4826 128.835 43.6401L129.386 43.9887L131.186 46.9917H129.409L127.62 43.91L126.811 43.7638V46.9917H125.27V39.1975ZM127.632 40.3784C127.474 40.3784 127.317 40.3822 127.159 40.3896C127.009 40.3971 126.893 40.4121 126.811 40.4346V42.7178H127.463C127.89 42.7178 128.231 42.6203 128.486 42.4254C128.741 42.2304 128.869 41.908 128.869 41.4581C128.869 41.1207 128.764 40.8583 128.554 40.6708C128.344 40.4759 128.037 40.3784 127.632 40.3784ZM133.16 39.1187H137.828V40.4909H134.701V42.3242H137.547V43.6963H134.701V45.6196H137.884V46.9917H133.16V39.1187Z" fill="white"/>
</g>
<defs>
<clipPath id="clip0_3166_3316">
<rect width="166.521" height="50.8301" fill="white"/>
</clipPath>
</defs>
</svg>
