<svg width="22" height="22" viewBox="0 0 22 22" fill="none" xmlns="http://www.w3.org/2000/svg">
<path d="M12.9 4H4.1C3.49249 4 3 4.44772 3 5C3 5.55228 3.49249 6 4.1 6H12.9C13.5075 6 14 5.55228 14 5C14 4.44772 13.5075 4 12.9 4Z" fill="#F5F5F5"/>
<path d="M18 10H4C3.44771 10 3 10.4477 3 11C3 11.5523 3.44771 12 4 12H18C18.5523 12 19 11.5523 19 11C19 10.4477 18.5523 10 18 10Z" fill="#F5F5F5"/>
<path d="M15.9231 16H4.07692C3.48215 16 3 16.4477 3 17C3 17.5523 3.48215 18 4.07692 18H15.9231C16.5178 18 17 17.5523 17 17C17 16.4477 16.5178 16 15.9231 16Z" fill="#F5F5F5"/>
<rect x="0.15" y="0.15" width="21.7" height="21.7" rx="0.85" stroke="#F5F5F5" stroke-width="0.3"/>
</svg>
